<svg width="496" height="575" viewBox="0 0 496 575" fill="none" xmlns="http://www.w3.org/2000/svg">
<path d="M274.494 0C422.467 0 496 70.3732 496 182.787C496 266.869 444.255 321.704 374.353 330.844C433.361 342.726 467.856 376.542 474.212 443.258L475.132 455.527L475.935 466.997L476.629 477.726L477.11 485.817L477.628 495.362L477.896 500.81L478.279 509.464L478.588 517.637L478.741 522.335L478.947 529.863L479.126 538.471L479.19 542.63L479.307 554.683L479.344 567.26L479.346 574.78H326.752L326.76 571.644L326.814 565.553L326.905 559.619L327.169 545.246L327.236 540.427L327.288 532.872L327.281 528.04L327.236 522.973L327.175 518.996L327.049 513.429L326.868 507.524L326.625 501.246L326.314 494.558L326.13 491.048L325.818 485.564L325.459 479.803L324.903 471.662L324.424 465.192C324.286 463.197 324.127 461.248 323.946 459.346L323.555 455.602C318.516 411.407 300.973 393.345 270.926 387.32L268.394 386.845C266.686 386.547 264.939 386.285 263.154 386.056L260.448 385.738C259.992 385.689 259.534 385.642 259.073 385.597L256.28 385.351L253.428 385.151L250.519 384.994L247.585 384.881L244.593 384.807L241.545 384.771L0 384.767V265.043H247.262C251.305 265.043 255.223 264.966 259.016 264.81L262.767 264.627L266.435 264.39L270.02 264.099C270.61 264.046 271.197 263.99 271.781 263.932L275.24 263.558C277.518 263.29 279.741 262.984 281.909 262.64L285.118 262.096C325.241 254.827 345.302 233.544 345.302 192.012C345.302 145.402 312.624 117.154 247.262 117.154H0V0H274.494ZM161.348 485.527C181.368 485.527 189.745 496.635 192.729 507.267L193.123 508.796L193.446 510.311L193.656 511.507L193.746 512.098L193.897 513.266L194.01 514.409L194.054 514.971L194.115 516.071L194.134 516.609L194.149 517.657V574.78H0V485.527H161.348Z" fill="#121212"/>
</svg>
