<svg width="256" height="263" viewBox="0 0 256 263" fill="none" xmlns="http://www.w3.org/2000/svg">
<g clip-path="url(#clip0_87_29)">
<path d="M149.602 258.578C142.884 267.038 129.264 262.403 129.102 251.601L126.735 93.6172H232.964C252.204 93.6172 262.935 115.84 250.971 130.909L149.602 258.578Z" fill="url(#paint0_linear_87_29)"/>
<path d="M149.602 258.578C142.884 267.038 129.264 262.403 129.102 251.601L126.735 93.6172H232.964C252.204 93.6172 262.935 115.84 250.971 130.909L149.602 258.578Z" fill="url(#paint1_linear_87_29)" fill-opacity="0.2"/>
<path d="M106.399 4.36909C113.116 -4.09118 126.737 0.544432 126.899 11.346L127.936 169.33H23.037C3.79559 169.33 -6.93568 147.107 5.02918 132.038L106.399 4.36909Z" fill="#3ECF8E"/>
</g>
<defs>
<linearGradient id="paint0_linear_87_29" x1="2823.42" y1="3596.52" x2="8914.67" y2="6151.18" gradientUnits="userSpaceOnUse">
<stop stop-color="#249361"/>
<stop offset="1" stop-color="#3ECF8E"/>
</linearGradient>
<linearGradient id="paint1_linear_87_29" x1="384.123" y1="-2134.49" x2="4294.42" y2="5226.43" gradientUnits="userSpaceOnUse">
<stop/>
<stop offset="1" stop-opacity="0"/>
</linearGradient>
<clipPath id="clip0_87_29">
<rect width="256" height="263" fill="white"/>
</clipPath>
</defs>
</svg>
