<svg width="720" height="168" viewBox="0 0 720 168" fill="none" xmlns="http://www.w3.org/2000/svg">
<path d="M0 0H720V163C720 165.761 717.761 168 715 168H4.99998C2.23856 168 0 165.761 0 163V0Z" fill="url(#paint0_linear_38_10093)"/>
<g clip-path="url(#clip0_38_10093)">
<path d="M266.343 49.3803L250.715 90.1956L245.281 104.388L239.866 118.527C239.484 119.526 238.539 120.18 237.467 120.18H208.391C207.192 120.18 206.356 118.981 206.792 117.854L233.269 48.7079C233.651 47.7084 234.596 47.0542 235.668 47.0542H264.744C265.943 47.0542 266.761 48.2536 266.343 49.3803Z" fill="#EA5A4D"/>
<path d="M249.532 93.2487L245.261 104.388L238.992 65.3357L249.477 93.1033L249.532 93.2487Z" fill="#AF443A"/>
<path d="M292.13 120.198H261.474C260.401 120.198 259.456 119.544 259.075 118.545L249.516 93.2668L249.462 93.1214L238.958 65.354L237.686 61.9739C237.268 60.8654 238.086 59.666 239.285 59.666H269.924C270.996 59.666 271.941 60.3202 272.322 61.3197L293.693 117.891C294.148 118.999 293.33 120.198 292.13 120.198Z" fill="#ED836C"/>
<path d="M324.611 111.98C324.353 111.98 323.269 111.98 323.011 111.98C323.011 113.838 324.731 115.576 327.157 115.576C329.48 115.576 330.908 114.182 331.114 112.479C331.355 110.587 330.168 109.331 327.949 108.763L326.4 108.384C324.903 108.023 324.714 107.249 324.714 106.733C324.714 105.649 325.781 104.943 326.933 104.943C328.224 104.943 329.17 105.7 329.17 106.887C329.445 106.887 330.495 106.887 330.77 106.887C330.77 104.754 329.119 103.412 326.951 103.412C324.938 103.412 323.114 104.754 323.114 106.75C323.114 107.782 323.493 109.21 326.004 109.847L327.536 110.225C328.602 110.466 329.652 111.068 329.549 112.342C329.411 113.236 328.671 114.079 327.157 114.079C325.66 114.079 324.628 113.012 324.611 111.98ZM332.822 109.503C332.822 112.858 335.437 115.576 338.809 115.576C342.199 115.576 344.831 112.858 344.831 109.503C344.831 106.13 342.199 103.412 338.809 103.412C335.437 103.412 332.822 106.13 332.822 109.503ZM334.422 109.503C334.422 106.991 336.332 104.961 338.809 104.961C341.304 104.961 343.214 106.991 343.214 109.503C343.214 112.015 341.304 114.028 338.809 114.028C336.332 114.028 334.422 112.015 334.422 109.503ZM347.289 103.55V115.404H353.724V113.907H348.89V103.55H347.289ZM359.788 114.028C358.326 114.028 357.07 112.961 357.07 111.326V103.55H355.452V111.326C355.452 113.907 357.448 115.576 359.788 115.576C362.128 115.576 364.124 113.907 364.124 111.326V103.55H362.507V111.326C362.507 112.961 361.251 114.028 359.788 114.028ZM366.098 103.55V105.064H369.694V115.404H371.311V105.064H374.907V103.55H366.098ZM377.012 103.55V115.404H378.612V103.55H377.012ZM381.077 109.503C381.077 112.858 383.692 115.576 387.064 115.576C390.453 115.576 393.087 112.858 393.087 109.503C393.087 106.13 390.453 103.412 387.064 103.412C383.692 103.412 381.077 106.13 381.077 109.503ZM382.677 109.503C382.677 106.991 384.587 104.961 387.064 104.961C389.559 104.961 391.469 106.991 391.469 109.503C391.469 112.015 389.559 114.028 387.064 114.028C384.587 114.028 382.677 112.015 382.677 109.503ZM404.078 115.404V103.55H402.478V112.41L397.127 103.55H395.544V115.404H397.145V106.475L402.547 115.404H404.078ZM408.183 111.98C407.926 111.98 406.842 111.98 406.583 111.98C406.583 113.838 408.303 115.576 410.73 115.576C413.052 115.576 414.48 114.182 414.687 112.479C414.927 110.587 413.741 109.331 411.521 108.763L409.973 108.384C408.477 108.023 408.286 107.249 408.286 106.733C408.286 105.649 409.354 104.943 410.507 104.943C411.796 104.943 412.742 105.7 412.742 106.887C413.017 106.887 414.068 106.887 414.343 106.887C414.343 104.754 412.69 103.412 410.523 103.412C408.51 103.412 406.686 104.754 406.686 106.75C406.686 107.782 407.065 109.21 409.577 109.847L411.109 110.225C412.175 110.466 413.224 111.068 413.121 112.342C412.984 113.236 412.243 114.079 410.73 114.079C409.232 114.079 408.201 113.012 408.183 111.98Z" fill="#14171F"/>
<path d="M346.066 62.9915L345.212 65.5538C342.923 63.2095 339.361 62.1919 336.235 62.1919C328.366 62.1919 321.225 68.2797 321.225 78.1109C321.225 87.9422 328.366 94.03 336.235 94.03C339.215 94.03 342.85 92.9761 345.158 90.6864L346.066 93.3939V93.4303H354.644V62.9188H346.066V62.9915ZM337.871 86.0523C333.545 86.0523 329.947 82.5814 329.947 78.129C329.947 73.6041 333.545 70.2605 337.871 70.2605C341.868 70.2605 345.794 73.4042 345.794 78.129C345.812 82.7813 342.068 86.0523 337.871 86.0523Z" fill="#14171F"/>
<path d="M452.193 70.1335C454.683 70.1335 457.245 71.3147 458.608 73.2047L465.024 68.6797C462.133 64.7544 457.681 62.1194 452.121 62.1194C443.198 62.1194 435.347 68.3526 435.347 78.0385C435.347 87.7426 443.217 94.0303 452.121 94.0303C457.699 94.0303 462.151 91.4679 465.024 87.47L458.608 82.945C457.226 84.8531 454.683 86.0343 452.193 86.0343C447.342 86.0343 444.07 82.5634 444.07 78.0385C444.052 73.6044 447.342 70.1335 452.193 70.1335Z" fill="#14171F"/>
<path d="M504.384 75.4397L499.331 74.1313C497.625 73.677 496.315 72.9501 496.315 71.5144C496.315 69.9335 497.896 68.9522 499.86 68.9522C501.894 68.9522 503.602 70.0606 503.602 72.0959H511.799C511.871 64.8815 505.311 62.1375 499.732 62.1375C492.644 62.1375 487.738 66.5352 487.738 71.2419C487.738 74.4584 488.793 78.838 496.642 80.9459L500.713 81.9272C503.004 82.5087 504.057 83.1811 504.057 84.4896C504.057 86.2523 502.149 87.3063 499.658 87.3063C496.642 87.3063 495.134 85.3983 495.134 83.6354H487.065C487.139 90.3774 493.354 94.0482 499.786 94.0482C506.074 94.0482 512.634 90.9045 512.634 84.4715C512.652 81.9817 511.725 77.4023 504.384 75.4397Z" fill="#14171F"/>
<path d="M400.04 62.1011C395.678 62.1011 391.88 64.4635 389.844 67.989C388.154 64.4998 384.593 62.1011 380.449 62.1011C376.088 62.1011 372.344 64.7724 370.782 68.5886L368.892 62.9552L368.873 62.9188H362.695V93.4668H371.381V76.8207C371.381 73.6225 373.98 71.0237 377.178 71.0237C380.377 71.0237 382.975 73.6225 382.975 76.8207V93.4485H391.588V76.8207C391.588 73.6225 394.187 71.0237 397.387 71.0237C400.585 71.0237 403.184 73.6225 403.184 76.8207V93.4485H411.742V73.8587C411.814 67.371 406.546 62.1011 400.04 62.1011Z" fill="#14171F"/>
<path d="M428.787 62.9185H419.865V93.4664H428.787V62.9185Z" fill="#14171F"/>
<path d="M424.334 47.0542C421.481 47.0542 419.172 49.3621 419.172 52.2152C419.172 55.0683 421.481 57.3761 424.334 57.3761C427.186 57.3761 429.495 55.0683 429.495 52.2152C429.495 49.3621 427.186 47.0542 424.334 47.0542Z" fill="#14171F"/>
<path d="M479.961 62.9185H471.037V93.4664H479.961V62.9185Z" fill="#14171F"/>
<path d="M475.509 47.0542C472.655 47.0542 470.348 49.3621 470.348 52.2152C470.348 55.0683 472.655 57.3761 475.509 57.3761C478.361 57.3761 480.668 55.0683 480.668 52.2152C480.668 49.3621 478.361 47.0542 475.509 47.0542Z" fill="#14171F"/>
</g>
<defs>
<linearGradient id="paint0_linear_38_10093" x1="0" y1="84" x2="720" y2="84" gradientUnits="userSpaceOnUse">
<stop stop-color="#ED836C"/>
<stop offset="1" stop-color="#874B3E"/>
</linearGradient>
<clipPath id="clip0_38_10093">
<rect width="306.65" height="73.8916" fill="white" transform="translate(206.675 47.0542)"/>
</clipPath>
</defs>
</svg>
