<svg width="720" height="168" viewBox="0 0 720 168" fill="none" xmlns="http://www.w3.org/2000/svg">
<rect width="720" height="168" fill="url(#paint0_linear_38_10070)"/>
<path d="M277.292 83.8737C277.114 78.7404 278.471 73.6701 281.191 69.3125C283.91 64.9549 287.868 61.5077 292.557 59.4117C297.247 57.3156 302.455 56.6662 307.516 57.5464C312.576 58.4267 317.259 60.7968 320.966 64.3531L315.356 70.7811C312.892 68.2861 309.727 66.6 306.282 65.9474C302.836 65.2949 299.274 65.7067 296.068 67.1279C292.862 68.5492 290.165 70.9121 288.335 73.9034C286.506 76.8947 285.63 80.3726 285.824 83.8737C285.434 100.849 301.815 106.861 314.537 98.6934V89.8278H302.135V81.2769H323.064V102.806C304.399 119.032 277.292 109.637 277.292 83.8737Z" fill="black"/>
<path d="M365.515 109.645H359.119L343.313 72.2605V109.555H334.787V58.3551H346.697L362.317 95.2922L377.866 58.3551H389.782V109.555H381.256V72.2925L365.515 109.645Z" fill="black"/>
<path d="M442.724 74.0125C442.722 69.8678 441.075 65.8933 438.143 62.9631C435.212 60.033 431.236 58.3871 427.091 58.3871H401.506V109.613H410.052V89.6441H419.985L432.004 109.607H442.449L430.187 89.331C433.724 88.6165 436.904 86.7006 439.189 83.9086C441.474 81.1166 442.723 77.6203 442.724 74.0125ZM434.172 74.0125C434.172 75.9174 433.415 77.7443 432.068 79.0913C430.721 80.4383 428.894 81.1955 426.989 81.1955H410.065V66.8295H426.989C428.894 66.8295 430.721 67.5866 432.068 68.9336C433.415 70.2806 434.172 72.1075 434.172 74.0125Z" fill="black"/>
<defs>
<linearGradient id="paint0_linear_38_10070" x1="0" y1="84" x2="720" y2="84" gradientUnits="userSpaceOnUse">
<stop stop-color="#BABCC6"/>
<stop offset="0.0001" stop-color="#AFB0BA"/>
<stop offset="0.500687" stop-color="#E9EBF8"/>
<stop offset="1" stop-color="#F8F9FD"/>
</linearGradient>
</defs>
</svg>
