<svg width="720" height="168" viewBox="0 0 720 168" fill="none" xmlns="http://www.w3.org/2000/svg">
<path d="M0 5C0 2.23858 2.23858 0 5 0H715C717.761 0 720 2.23858 720 5V168H0V5Z" fill="url(#paint0_radial_38_10061)"/>
<g clip-path="url(#clip0_38_10061)">
<path d="M413.886 72.6172C417.925 70.8097 427.786 67.2655 437.479 67.2655C446.807 67.2655 455.494 69.8951 455.494 83.5101V114.819H443.031V84.6052C443.031 78.434 439.72 76.6992 435.502 76.6992C432.453 76.6992 428.688 77.3413 426.354 78.6953V114.819H413.886V72.6172Z" fill="white"/>
<path d="M365.145 110.862C361.115 112.675 351.245 116.219 341.556 116.219C332.229 116.219 323.526 113.585 323.526 99.9756V68.6656H335.994V98.8787C335.994 105.05 339.314 106.781 343.528 106.781C346.576 106.781 350.341 106.149 352.671 104.78V68.6656H365.144L365.145 110.862Z" fill="white"/>
<path d="M283.236 67.8454C279.627 67.8454 275.935 68.5681 272.014 69.6247L274.084 78.3707C275.838 77.8972 277.453 77.7397 279.113 77.7397C284.853 77.7397 288.979 81.1828 288.979 91.6251C288.979 99.9714 286.472 106.327 276.515 106.327C274.45 106.327 272.92 106.149 271.227 105.689V51.6H258.75V113.314C262.705 114.854 271.228 116.398 278.485 116.398C295.44 116.398 301.984 106.419 301.984 89.7174C301.984 73.3803 293.823 67.8454 283.236 67.8454Z" fill="white"/>
<path fill-rule="evenodd" clip-rule="evenodd" d="M389.564 67.8435C376.818 67.8435 368.126 74.2879 368.126 92.167C368.126 110.045 376.379 116.4 389.022 116.4C402.383 116.4 410.905 109.867 410.905 92.0771C410.905 74.1046 402.836 67.8435 389.564 67.8435ZM389.471 106.686C384.354 106.686 380.501 103.695 380.501 92.167C380.501 79.9172 384.354 77.648 389.564 77.648C394.759 77.648 398.433 79.9172 398.433 92.167C398.433 103.695 394.668 106.686 389.471 106.686Z" fill="white"/>
<path d="M318.186 51.6865H305.274V115.215H318.186V51.6865Z" fill="white"/>
<path fill-rule="evenodd" clip-rule="evenodd" d="M449.322 57.6549C449.322 61.008 451.97 63.6973 455.286 63.6973C458.602 63.6973 461.25 61.008 461.25 57.6549C461.25 54.3018 458.602 51.6239 455.286 51.6239C451.97 51.6239 449.322 54.3018 449.322 57.6549ZM459.869 57.6551C459.869 60.23 457.844 62.2785 455.286 62.2785C452.74 62.2785 450.702 60.23 450.702 57.6551C450.702 55.0802 452.74 53.0432 455.286 53.0432C457.844 53.0432 459.869 55.0802 459.869 57.6551ZM454.256 60.3672H452.954V54.7482H455.818C456.995 54.7482 457.832 55.4806 457.832 56.522C457.832 57.3917 457.391 57.9983 456.61 58.2157L458.092 60.3672H456.531L455.195 58.4103H454.256V60.3672ZM454.256 57.346V55.8698H455.512C456.112 55.8698 456.418 56.1215 456.418 56.6022C456.418 57.1172 456.112 57.346 455.478 57.346H454.256Z" fill="white"/>
</g>
<defs>
<radialGradient id="paint0_radial_38_10061" cx="0" cy="0" r="1" gradientUnits="userSpaceOnUse" gradientTransform="translate(360 84) scale(360 84)">
<stop stop-color="#1352FF"/>
<stop offset="1" stop-color="#0B3199"/>
</radialGradient>
<clipPath id="clip0_38_10061">
<rect width="202.5" height="64.8" fill="white" transform="translate(258.75 51.6)"/>
</clipPath>
</defs>
</svg>
