<svg height="311" viewBox="0 0 100 311" fill="none" xmlns="http://www.w3.org/2000/svg">
<g style="mix-blend-mode:difference">
<path fill-rule="evenodd" clip-rule="evenodd" d="M-198 97.4076L-153.34 146.111C-107.327 194.815 -18.0067 292.223 72.6667 308.457C163.34 324.692 252.66 259.754 343.333 211.05C434.007 162.346 523.327 129.877 614 113.642C704.673 97.4076 793.993 97.4076 884.667 121.76C975.34 146.111 1064.66 194.815 1155.33 186.698C1246.01 178.581 1335.33 113.642 1381.34 81.173L1426 48.7038V-9.58463e-06H1381.34C1335.33 -9.58463e-06 1246.01 -9.58463e-06 1155.33 -9.58463e-06C1064.66 -9.58463e-06 975.34 -9.58463e-06 884.667 -9.58463e-06C793.993 -9.58463e-06 704.673 -9.58463e-06 614 -9.58463e-06C523.327 -9.58463e-06 434.007 -9.58463e-06 343.333 -9.58463e-06C252.66 -9.58463e-06 163.34 -9.58463e-06 72.6667 -9.58463e-06C-18.0067 -9.58463e-06 -107.327 -9.58463e-06 -153.34 -9.58463e-06H-198V97.4076Z" fill="url(#paint0_linear_38_10026)"/>
</g>
<defs>
<linearGradient id="paint0_linear_38_10026" x1="-198" y1="155.5" x2="1426" y2="155.5" gradientUnits="userSpaceOnUse">
<stop stop-color="#FF5C00"/>
<stop offset="1" stop-color="#005C99" stop-opacity="0"/>
</linearGradient>
</defs>
</svg>
