<svg width="720" height="168" viewBox="0 0 720 168" fill="none" xmlns="http://www.w3.org/2000/svg">
<rect width="720" height="168" fill="white"/>
<path d="M150.055 83.1158V100.082H144.75V59.0754H150.055V77.8105H162.716V59.0754H168.021V100.082H162.716V83.1158H150.055Z" fill="#D50032"/>
<path d="M196.598 91.0352L201.903 92.9318C200.605 94.7259 199.665 95.9134 199.084 96.4943C196.231 99.3477 192.788 100.774 188.756 100.774C184.74 100.774 181.306 99.3477 178.452 96.4943C175.599 93.6409 174.172 90.198 174.172 86.1656C174.172 82.1333 175.599 78.6904 178.452 75.837C181.306 72.9836 184.74 71.5569 188.756 71.5569C192.788 71.5569 196.231 72.9836 199.084 75.837C199.665 76.4179 200.605 77.5884 201.903 79.3482L196.598 81.2961C195.915 80.4588 195.453 79.9206 195.214 79.6814C193.437 77.9044 191.284 77.016 188.756 77.016C186.244 77.016 184.095 77.9087 182.31 79.6942C180.524 81.4797 179.631 83.6369 179.631 86.1656C179.631 88.6773 180.524 90.8259 182.31 92.6114C184.095 94.3969 186.244 95.2897 188.756 95.2897C191.284 95.2897 193.446 94.4012 195.24 92.6243C195.462 92.385 195.915 91.8554 196.598 91.0352Z" fill="#D50032"/>
<path d="M223.945 73.7098L216.794 82.5263L226.739 100.082H220.408L213.232 86.9346L213.001 87.2165V100.082H207.67V63.8169H213.001V78.7332L217.102 73.7098H223.945Z" fill="#D50032"/>
<path d="M260.185 61.3821V100.082H257.878V61.3821H247.498V59.0754H270.565V61.3821H260.185Z" fill="#D50032"/>
<path d="M279.897 95.1383C282.148 97.1942 284.824 98.2222 287.926 98.2222C291.258 98.2222 294.102 97.0435 296.46 94.6863C296.761 94.385 297.044 94.0749 297.31 93.7558L299.836 94.6597C299.375 95.2978 298.852 95.9092 298.267 96.4941C295.414 99.3476 291.967 100.774 287.926 100.774C283.902 100.774 280.464 99.3476 277.61 96.4941C274.757 93.6406 273.33 90.1933 273.33 86.1523C273.33 82.1291 274.757 78.6907 277.61 75.8372C280.464 72.9836 283.902 71.5569 287.926 71.5569C291.382 71.5569 294.404 72.5937 296.991 74.6674C297.417 75.0219 297.842 75.4118 298.267 75.8372C298.427 75.9967 298.577 76.1562 298.719 76.3157L296.911 78.1235L279.897 95.1383ZM295.157 76.5018C293.083 74.9067 290.673 74.1091 287.926 74.1091C284.611 74.1091 281.775 75.2833 279.418 77.6317C277.061 79.9801 275.882 82.8203 275.882 86.1523C275.882 88.8995 276.68 91.3099 278.275 93.3836L295.157 76.5018Z" fill="#D50032"/>
<path d="M329.654 93.7558L332.18 94.6597C331.719 95.2978 331.196 95.9092 330.612 96.4941C327.758 99.3476 324.311 100.774 320.27 100.774C316.246 100.774 312.808 99.3476 309.955 96.4941C307.101 93.6406 305.674 90.1933 305.674 86.1523C305.674 82.1291 307.101 78.6907 309.955 75.8372C312.808 72.9836 316.246 71.5569 320.27 71.5569C324.311 71.5569 327.758 72.9836 330.612 75.8372C331.196 76.422 331.719 77.0247 332.18 77.645L329.654 78.5755C329.389 78.2564 329.105 77.9374 328.804 77.6184C326.446 75.2789 323.602 74.1091 320.27 74.1091C316.955 74.1091 314.12 75.2833 311.762 77.6317C309.405 79.9801 308.227 82.8203 308.227 86.1523C308.227 89.4844 309.405 92.329 311.762 94.6863C314.12 97.0435 316.955 98.2222 320.27 98.2222C323.602 98.2222 326.446 97.0435 328.804 94.6863C329.105 94.385 329.389 94.0749 329.654 93.7558Z" fill="#D50032"/>
<path d="M339.79 59.0754H342.096V76.2215C344.044 74.342 346.385 73.4023 349.119 73.4023C352.092 73.4023 354.509 74.3335 356.372 76.1959C358.234 78.0583 359.191 80.4076 359.242 83.244V100.082H356.936V83.449C356.936 81.3132 356.162 79.4893 354.616 77.9771C353.07 76.465 351.237 75.7089 349.119 75.7089C347 75.7089 345.172 76.4522 343.634 77.9387C342.951 78.6221 342.438 79.3312 342.096 80.0659V100.082H339.79L339.79 59.0754Z" fill="#D50032"/>
<path d="M370.597 79.7008V100.083H368.192V73.8507H370.597V75.5336C372.787 73.361 375.334 72.2747 378.236 72.2747C381.335 72.2747 383.855 73.2452 385.796 75.1863C387.737 77.1275 388.734 79.5761 388.788 82.5323V100.083H386.384V82.746C386.384 80.52 385.578 78.6189 383.966 77.0429C382.355 75.4668 380.445 74.6788 378.236 74.6788C376.028 74.6788 374.123 75.4535 372.52 77.0028C371.647 77.8754 371.006 78.7747 370.597 79.7008Z" fill="#D50032"/>
<path d="M410.014 71.5569C414.055 71.5569 417.498 72.9836 420.343 75.8372C423.188 78.6907 424.61 82.1379 424.61 86.1789C424.61 90.2022 423.188 93.6406 420.343 96.4941C417.498 99.3476 414.055 100.774 410.014 100.774C405.991 100.774 402.553 99.3476 399.699 96.4941C396.846 93.6406 395.419 90.2022 395.419 86.1789C395.419 82.1379 396.846 78.6907 399.699 75.8372C402.553 72.9836 405.991 71.5569 410.014 71.5569ZM410.014 74.1091C406.682 74.1091 403.838 75.2877 401.48 77.645C399.123 80.0022 397.945 82.8469 397.945 86.1789C397.945 89.511 399.123 92.3512 401.48 94.6996C403.838 97.048 406.682 98.2222 410.014 98.2222C413.346 98.2222 416.191 97.048 418.548 94.6996C420.906 92.3512 422.084 89.511 422.084 86.1789C422.084 82.8469 420.906 80.0022 418.548 77.645C416.191 75.2877 413.346 74.1091 410.014 74.1091Z" fill="#D50032"/>
<path d="M434.568 59.0498V100.082H432.26V59.0498H434.568Z" fill="#D50032"/>
<path d="M456.814 71.5569C460.855 71.5569 464.298 72.9836 467.142 75.8372C469.987 78.6907 471.409 82.1379 471.409 86.1789C471.409 90.2022 469.987 93.6406 467.142 96.4941C464.298 99.3476 460.855 100.774 456.814 100.774C452.79 100.774 449.352 99.3476 446.499 96.4941C443.645 93.6406 442.218 90.2022 442.218 86.1789C442.218 82.1379 443.645 78.6907 446.499 75.8372C449.352 72.9836 452.79 71.5569 456.814 71.5569ZM456.814 74.1091C453.482 74.1091 450.637 75.2877 448.28 77.645C445.923 80.0022 444.744 82.8469 444.744 86.1789C444.744 89.511 445.923 92.3512 448.28 94.6996C450.637 97.048 453.482 98.2222 456.814 98.2222C460.146 98.2222 462.99 97.048 465.348 94.6996C467.705 92.3512 468.884 89.511 468.884 86.1789C468.884 82.8469 467.705 80.0022 465.348 77.645C462.99 75.2877 460.146 74.1091 456.814 74.1091Z" fill="#D50032"/>
<path d="M503.474 83.8144C503.008 81.5024 501.897 79.4682 500.141 77.7119C497.757 75.3282 494.881 74.1364 491.511 74.1364C488.142 74.1364 485.265 75.3282 482.882 77.7119C480.498 80.0955 479.306 82.972 479.306 86.3414C479.306 89.7107 480.498 92.5873 482.882 94.9709C485.265 97.3545 488.142 98.5464 491.511 98.5464C494.881 98.5464 497.757 97.3545 500.141 94.9709C501.879 93.2324 502.99 91.2162 503.474 88.9222V83.8144ZM503.421 95.1053C502.973 95.6788 502.489 96.2344 501.969 96.7721C499.083 99.6575 495.598 101.1 491.511 101.1C487.443 101.1 483.966 99.6575 481.081 96.7721C478.195 93.8866 476.752 90.4097 476.752 86.3414C476.752 82.2551 478.195 78.7738 481.081 75.8973C483.966 73.0208 487.443 71.5825 491.511 71.5825C495.598 71.5825 499.083 73.0163 501.969 75.8838C502.524 76.4573 503.035 77.0577 503.501 77.685V73.9482H505.921V94.4601C505.921 98.4209 504.514 101.808 501.7 104.622C498.815 107.507 495.338 108.95 491.269 108.95C487.183 108.95 483.697 107.507 480.812 104.622C480.22 104.031 479.692 103.412 479.226 102.767L481.78 101.853C482.048 102.176 482.335 102.489 482.64 102.794C485.023 105.178 487.9 106.369 491.269 106.369C494.621 106.369 497.488 105.178 499.872 102.794C502.041 100.625 503.223 98.0625 503.421 95.1053Z" fill="#D50032"/>
<path d="M517.904 72.6058V100.083H515.386V72.6058H517.904ZM516.645 62.8687C517.335 62.8687 517.928 63.1111 518.422 63.5961C518.916 64.0811 519.163 64.6687 519.163 65.3589C519.163 66.0678 518.916 66.6647 518.422 67.1497C517.928 67.6347 517.335 67.8772 516.645 67.8772C515.955 67.8772 515.363 67.6347 514.868 67.1497C514.374 66.6647 514.127 66.0678 514.127 65.3589C514.127 64.6687 514.374 64.0811 514.868 63.5961C515.363 63.1112 515.955 62.8687 516.645 62.8687Z" fill="#D50032"/>
<path d="M533.064 95.1383C535.315 97.1942 537.991 98.2222 541.093 98.2222C544.425 98.2222 547.27 97.0435 549.627 94.6863C549.928 94.385 550.212 94.0749 550.478 93.7558L553.003 94.6597C552.543 95.2978 552.02 95.9092 551.435 96.4941C548.581 99.3476 545.134 100.774 541.093 100.774C537.07 100.774 533.631 99.3476 530.778 96.4941C527.924 93.6406 526.498 90.1933 526.498 86.1523C526.498 82.1291 527.924 78.6907 530.778 75.8372C533.631 72.9836 537.07 71.5569 541.093 71.5569C544.549 71.5569 547.571 72.5937 550.159 74.6674C550.584 75.0219 551.009 75.4118 551.435 75.8372C551.594 75.9967 551.745 76.1562 551.887 76.3157L550.079 78.1235L533.064 95.1383ZM548.324 76.5018C546.251 74.9067 543.84 74.1091 541.093 74.1091C537.779 74.1091 534.943 75.2833 532.586 77.6317C530.228 79.9801 529.05 82.8203 529.05 86.1523C529.05 88.8995 529.847 91.3099 531.442 93.3836L548.324 76.5018Z" fill="#D50032"/>
<path d="M567.843 86.5262C565.793 85.4209 564.376 84.4761 563.591 83.6917C562.361 82.4616 561.746 80.982 561.746 79.2528C561.746 77.5057 562.361 76.0127 563.591 74.7738C564.821 73.5348 566.301 72.9153 568.03 72.9153C569.777 72.9153 571.221 73.4857 572.362 74.6267C573.467 75.7498 574.02 77.0244 574.02 78.4506V78.5843L571.934 79.4132C571.756 78.0584 571.333 77.0422 570.664 76.3648C569.995 75.6874 569.118 75.3487 568.03 75.3487C566.96 75.3487 566.042 75.7275 565.276 76.4851C564.509 77.2428 564.126 78.1653 564.126 79.2528C564.126 80.3224 564.509 81.2405 565.276 82.007C565.721 82.4527 566.666 83.1301 568.11 84.0393C570.392 85.2872 572.014 86.3925 572.977 87.3552C574.492 88.8883 575.25 90.7155 575.25 92.8369C575.25 95.0118 574.492 96.8614 572.977 98.3856C571.462 99.9098 569.626 100.672 567.469 100.672C565.311 100.672 563.475 99.9098 561.96 98.3856C560.445 96.8614 559.687 95.1901 559.687 93.3717L562.067 92.7567C562.067 94.3255 562.597 95.6358 563.658 96.6876C564.719 97.7394 565.989 98.2653 567.469 98.2653C568.948 98.2653 570.218 97.7394 571.279 96.6876C572.34 95.6358 572.87 94.3522 572.87 92.8369C572.87 91.3573 572.344 90.0916 571.292 89.0398C570.722 88.4693 569.572 87.6315 567.843 86.5262Z" fill="#D50032"/>
</svg>
